<svg width="32" height="32" viewBox="0 0 32 32" fill="none" xmlns="http://www.w3.org/2000/svg">
    <circle cx="16" cy="16" r="16" fill="#F1F3F5"/>
    <path d="M12.6172 21.066C12.4492 21.066 12.3092 21.024 12.1972 20.94C12.0852 20.8467 12.0198 20.73 12.0012 20.59C11.9918 20.45 12.0385 20.31 12.1412 20.17L15.5012 15.676V16.18L12.3372 11.924C12.2252 11.7653 12.1738 11.616 12.1832 11.476C12.2018 11.336 12.2625 11.224 12.3652 11.14C12.4772 11.0467 12.6125 11 12.7712 11C12.9112 11 13.0325 11.0327 13.1352 11.098C13.2472 11.154 13.3545 11.2613 13.4572 11.42L16.2572 15.242H15.8512L18.6232 11.42C18.7258 11.2613 18.8285 11.154 18.9312 11.098C19.0432 11.0327 19.1738 11 19.3232 11C19.4912 11 19.6265 11.0467 19.7292 11.14C19.8412 11.224 19.9018 11.336 19.9112 11.476C19.9298 11.616 19.8785 11.7653 19.7572 11.924L16.5932 16.18V15.676L19.9392 20.17C20.0418 20.31 20.0885 20.45 20.0792 20.59C20.0698 20.73 20.0092 20.8467 19.8972 20.94C19.7852 21.024 19.6405 21.066 19.4632 21.066C19.3418 21.066 19.2252 21.0333 19.1132 20.968C19.0012 20.9027 18.8892 20.7953 18.7772 20.646L15.7952 16.572H16.2852L13.3172 20.646C13.2052 20.7953 13.0932 20.9027 12.9812 20.968C12.8692 21.0333 12.7478 21.066 12.6172 21.066Z" fill="#868E96"/>
</svg>
